<svg width="46" height="44" viewBox="0 0 46 44" fill="none" xmlns="http://www.w3.org/2000/svg">
<path d="M21.5834 28.6665H25.9168C28.9598 28.6665 30.4813 28.6665 31.5742 27.9363C32.0474 27.6201 32.4537 27.2138 32.7698 26.7407C33.5001 25.6477 33.5001 24.1262 33.5001 21.0832C33.5001 18.0402 33.4999 16.519 32.7696 15.426C32.4535 14.9528 32.0472 14.5466 31.5741 14.2304C30.4811 13.5001 28.9596 13.5001 25.9166 13.5001H21.5833C18.5403 13.5001 17.0188 13.5001 15.9258 14.2304C15.4527 14.5466 15.0464 14.9528 14.7302 15.426C14.0001 16.5187 14.0001 18.0395 14.0001 21.0812L14.0001 21.0832C14.0001 24.1262 14.0001 25.6477 14.7304 26.7407C15.0466 27.2138 15.4528 27.6201 15.926 27.9363C17.0189 28.6665 18.5404 28.6665 21.5834 28.6665Z" fill="url(#paint0_linear_7987_5054)" fill-opacity="0.4"/>
<g filter="url(#filter0_f_7987_5054)">
<ellipse cx="23" cy="22" rx="9" ry="8" fill="white" fill-opacity="0.44"/>
</g>
<path d="M30.4584 10.7915H25.0417" stroke="black" stroke-width="0.473958" stroke-linecap="round"/>
<path d="M25.5834 28.6665H29.9168C32.9598 28.6665 34.4813 28.6665 35.5742 27.9363C36.0474 27.6201 36.4537 27.2138 36.7698 26.7407C37.5001 25.6477 37.5001 24.1262 37.5001 21.0832C37.5001 18.0402 37.4999 16.519 36.7696 15.426C36.4535 14.9528 36.0472 14.5466 35.5741 14.2304C34.4811 13.5001 32.9596 13.5001 29.9166 13.5001H25.5833C22.5403 13.5001 21.0188 13.5001 19.9258 14.2304C19.4527 14.5466 19.0464 14.9528 18.7302 15.426C18.0001 16.5187 18.0001 18.0395 18.0001 21.0812L18.0001 21.0832C18.0001 24.1262 18.0001 25.6477 18.7304 26.7407C19.0466 27.2138 19.4528 27.6201 19.926 27.9363C21.0189 28.6665 22.5404 28.6665 25.5834 28.6665Z" fill="white"/>
<circle cx="27.7501" cy="21.0835" r="3.25" fill="black"/>
<path d="M34.2502 17.8335H33.7085" stroke="black" stroke-width="0.473958" stroke-linecap="round"/>
<defs>
<filter id="filter0_f_7987_5054" x="0" y="0" width="46" height="44" filterUnits="userSpaceOnUse" color-interpolation-filters="sRGB">
<feFlood flood-opacity="0" result="BackgroundImageFix"/>
<feBlend mode="normal" in="SourceGraphic" in2="BackgroundImageFix" result="shape"/>
<feGaussianBlur stdDeviation="7" result="effect1_foregroundBlur_7987_5054"/>
</filter>
<linearGradient id="paint0_linear_7987_5054" x1="23.7501" y1="13.5" x2="23.7501" y2="28.6665" gradientUnits="userSpaceOnUse">
<stop stop-color="#ADADAD"/>
<stop offset="1" stop-color="#3D3D3D"/>
</linearGradient>
</defs>
</svg>
