<svg width="24" height="24" viewBox="0 0 24 24" fill="none" xmlns="http://www.w3.org/2000/svg">
<path d="M1 11.7693C1 8.28822 1 6.54766 2.10267 5.46621C3.20534 4.38477 4.98005 4.38477 8.52949 4.38477H12.2942C15.8437 4.38477 17.6184 4.38477 18.7211 5.46621C19.8237 6.54766 19.8237 8.28822 19.8237 11.7693V13.6155C19.8237 17.0966 19.8237 18.8372 18.7211 19.9186C17.6184 21.0001 15.8437 21.0001 12.2942 21.0001H8.52949C4.98005 21.0001 3.20534 21.0001 2.10267 19.9186C1 18.8372 1 17.0966 1 13.6155V11.7693Z" fill="url(#paint0_linear_10614_6908)" fill-opacity="0.4"/>
<path d="M4.32983 11.7693C4.32983 8.28822 4.32983 6.54766 5.4325 5.46621C6.53517 4.38477 8.30989 4.38477 11.8593 4.38477H15.6241C19.1735 4.38477 20.9482 4.38477 22.0509 5.46621C23.1536 6.54766 23.1536 8.28822 23.1536 11.7693V13.6155C23.1536 17.0966 23.1536 18.8372 22.0509 19.9186C20.9482 21.0001 19.1735 21.0001 15.6241 21.0001H11.8593C8.30989 21.0001 6.53517 21.0001 5.4325 19.9186C4.32983 18.8372 4.32983 17.0966 4.32983 13.6155V11.7693Z" fill="white"/>
<path d="M9.03662 4.38461V3" stroke="black" stroke-width="0.47" stroke-linecap="round"/>
<path d="M18.4485 4.38461V3" stroke="black" stroke-width="0.47" stroke-linecap="round"/>
<path d="M4.80078 9H22.6833" stroke="black" stroke-width="0.47" stroke-linecap="round"/>
<path d="M18.4478 15.6968C18.8419 15.6969 19.1537 16.0087 19.1538 16.3843C19.1538 16.7599 18.842 17.0726 18.4478 17.0728C18.0534 17.0728 17.7417 16.76 17.7417 16.3843C17.7418 16.0086 18.0535 15.6968 18.4478 15.6968ZM18.4478 12.0044C18.8419 12.0045 19.1537 12.3163 19.1538 12.6919C19.1538 13.0676 18.842 13.3803 18.4478 13.3804C18.0534 13.3804 17.7417 13.0676 17.7417 12.6919C17.7418 12.3163 18.0535 12.0044 18.4478 12.0044Z" fill="black" stroke="black" stroke-width="0.47"/>
<path d="M13.7427 15.6968C14.1369 15.6969 14.4487 16.0087 14.4487 16.3843C14.4487 16.7599 14.1369 17.0726 13.7427 17.0728C13.3483 17.0728 13.0366 16.76 13.0366 16.3843C13.0367 16.0086 13.3484 15.6968 13.7427 15.6968ZM13.7427 12.0044C14.1368 12.0045 14.4486 12.3163 14.4487 12.6919C14.4487 13.0676 14.1369 13.3803 13.7427 13.3804C13.3483 13.3804 13.0366 13.0676 13.0366 12.6919C13.0367 12.3163 13.3484 12.0044 13.7427 12.0044Z" fill="black" stroke="black" stroke-width="0.47"/>
<path d="M9.03589 15.6968C9.43008 15.6969 9.74187 16.0087 9.74194 16.3843C9.74194 16.7599 9.43013 17.0726 9.03589 17.0728C8.64155 17.0728 8.32983 16.76 8.32983 16.3843C8.3299 16.0086 8.64159 15.6968 9.03589 15.6968ZM9.03589 12.0044C9.43005 12.0045 9.74182 12.3163 9.74194 12.6919C9.74194 13.0676 9.43013 13.3803 9.03589 13.3804C8.64155 13.3804 8.32983 13.0676 8.32983 12.6919C8.32996 12.3163 8.64162 12.0044 9.03589 12.0044Z" fill="black" stroke="black" stroke-width="0.47"/>
<defs>
<linearGradient id="paint0_linear_10614_6908" x1="10.4119" y1="4.38477" x2="10.4119" y2="21.0001" gradientUnits="userSpaceOnUse">
<stop stop-color="#ADADAD"/>
<stop offset="1" stop-color="#3D3D3D"/>
</linearGradient>
</defs>
</svg>
