<svg width="40" height="26" viewBox="0 0 40 26" fill="none" xmlns="http://www.w3.org/2000/svg">
<path opacity="0.4" d="M19.833 2.2373C20.3844 2.2373 20.9199 2.39061 21.5947 2.71875C22.2743 3.04922 23.0768 3.54706 24.167 4.22363L26.334 5.56836C27.3655 6.20852 28.1245 6.68053 28.6973 7.11914C29.2656 7.5544 29.6365 7.94685 29.8965 8.42188C30.1567 8.89732 30.2918 9.42945 30.3604 10.1592C30.4294 10.8937 30.4297 11.8109 30.4297 13.0547V14.7021C30.4297 16.8215 30.4296 18.3881 30.2734 19.5898C30.118 20.7856 29.8122 21.5847 29.2275 22.1895C28.644 22.793 27.8746 23.1073 26.7227 23.2676C25.5627 23.4289 24.0497 23.4297 22 23.4297H17.667C15.6173 23.4297 14.1043 23.4289 12.9443 23.2676C11.7922 23.1073 11.023 22.793 10.4395 22.1895C9.85478 21.5847 9.54898 20.7856 9.39355 19.5898C9.23735 18.3881 9.2373 16.8216 9.2373 14.7021V13.0547C9.2373 11.8108 9.23763 10.8938 9.30664 10.1592C9.37522 9.42938 9.51025 8.89735 9.77051 8.42188C10.0306 7.94679 10.4013 7.55446 10.9697 7.11914C11.5425 6.68053 12.3015 6.20852 13.333 5.56836L15.499 4.22363C16.5894 3.54692 17.3926 3.04925 18.0723 2.71875C18.7468 2.39073 19.2817 2.23737 19.833 2.2373Z" fill="#292D32" stroke="url(#paint0_linear_9717_6252)" stroke-width="0.473958"/>
<path d="M16.75 17.1665C17.6712 17.8494 18.7916 18.2498 20 18.2498C21.2084 18.2498 22.3288 17.8494 23.25 17.1665" stroke="#949494" stroke-width="0.47" stroke-linecap="round"/>
<defs>
<linearGradient id="paint0_linear_9717_6252" x1="19.8333" y1="2" x2="19.8333" y2="23.6667" gradientUnits="userSpaceOnUse">
<stop stop-color="#171717"/>
<stop offset="1" stop-color="#999999"/>
</linearGradient>
</defs>
</svg>
