<svg width="71" height="71" viewBox="0 0 71 71" fill="none" xmlns="http://www.w3.org/2000/svg">
<rect width="70.2622" height="70.2622" rx="35.1311" fill="#282828"/>
<g clip-path="url(#clip0_5789_14662)">
<path d="M30.4771 32.6421C30.4771 31.417 31.4702 30.4238 32.6953 30.4238H37.9509C39.176 30.4238 40.1692 31.417 40.1692 32.6421V39.1168C40.1692 39.8955 39.7608 40.6173 39.0932 41.0183L36.544 42.5497C35.8537 42.9645 34.9927 42.9724 34.2947 42.5704L31.5883 41.012C30.9008 40.616 30.4771 39.883 30.4771 39.0896V32.6421Z" fill="black"/>
<path d="M30.4771 32.6421C30.4771 31.417 31.4702 30.4238 32.6953 30.4238H37.9509C39.176 30.4238 40.1692 31.417 40.1692 32.6421V39.1168C40.1692 39.8955 39.7608 40.6173 39.0932 41.0183L36.544 42.5497C35.8537 42.9645 34.9927 42.9724 34.2947 42.5704L31.5883 41.012C30.9008 40.616 30.4771 39.883 30.4771 39.0896V32.6421Z" fill="url(#paint0_linear_5789_14662)"/>
<path fill-rule="evenodd" clip-rule="evenodd" d="M29.715 32.7786H19.1593C18.5114 32.7786 17.9861 33.3039 17.9861 33.9518C17.9861 34.4964 18.3609 34.9695 18.8911 35.094L29.715 37.636V32.7786ZM40.7249 37.6079L51.7837 35.0887C52.316 34.9675 52.6936 34.4941 52.6936 33.9483C52.6936 33.3022 52.1699 32.7786 51.5239 32.7786H40.7249V37.6079Z" fill="black"/>
<path fill-rule="evenodd" clip-rule="evenodd" d="M29.715 32.7786H19.1593C18.5114 32.7786 17.9861 33.3039 17.9861 33.9518C17.9861 34.4964 18.3609 34.9695 18.8911 35.094L29.715 37.636V32.7786ZM40.7249 37.6079L51.7837 35.0887C52.316 34.9675 52.6936 34.4941 52.6936 33.9483C52.6936 33.3022 52.1699 32.7786 51.5239 32.7786H40.7249V37.6079Z" fill="url(#paint1_linear_5789_14662)"/>
<path d="M27.0948 45.2971L29.8344 39.9321C30.1664 39.282 29.818 38.4909 29.1143 38.2968C28.5717 38.1471 28.0004 38.4112 27.7628 38.9214L25.2203 44.3825C24.9417 44.9811 25.2822 45.6847 25.9245 45.8374C26.3926 45.9488 26.876 45.7256 27.0948 45.2971Z" fill="black"/>
<path d="M27.0948 45.2971L29.8344 39.9321C30.1664 39.282 29.818 38.4909 29.1143 38.2968C28.5717 38.1471 28.0004 38.4112 27.7628 38.9214L25.2203 44.3825C24.9417 44.9811 25.2822 45.6847 25.9245 45.8374C26.3926 45.9488 26.876 45.7256 27.0948 45.2971Z" fill="url(#paint2_linear_5789_14662)"/>
<path d="M45.4946 43.9178L43.3742 39.1961C43.1224 38.6354 42.5143 38.3254 41.9126 38.4511C41.0826 38.6246 40.6341 39.5294 40.9987 40.2949L43.2241 44.968C43.5556 45.6641 44.4318 45.8974 45.0655 45.4586C45.5611 45.1154 45.7415 44.4677 45.4946 43.9178Z" fill="black"/>
<path d="M45.4946 43.9178L43.3742 39.1961C43.1224 38.6354 42.5143 38.3254 41.9126 38.4511C41.0826 38.6246 40.6341 39.5294 40.9987 40.2949L43.2241 44.968C43.5556 45.6641 44.4318 45.8974 45.0655 45.4586C45.5611 45.1154 45.7415 44.4677 45.4946 43.9178Z" fill="url(#paint3_linear_5789_14662)"/>
<path d="M21.9333 29.4453H23.1242L23.124 32.1452H21.9331L21.9333 29.4453Z" fill="black"/>
<path d="M21.9333 29.4453H23.1242L23.124 32.1452H21.9331L21.9333 29.4453Z" fill="url(#paint4_linear_5789_14662)"/>
<path d="M17.5656 28.016C17.5656 27.095 18.3122 26.3484 19.2331 26.3484H25.9829C26.9039 26.3484 27.6505 27.095 27.6505 28.016C27.6505 28.937 26.9039 29.6836 25.9829 29.6836H19.2331C18.3122 29.6836 17.5656 28.937 17.5656 28.016Z" fill="black"/>
<path d="M17.5656 28.016C17.5656 27.095 18.3122 26.3484 19.2331 26.3484H25.9829C26.9039 26.3484 27.6505 27.095 27.6505 28.016C27.6505 28.937 26.9039 29.6836 25.9829 29.6836H19.2331C18.3122 29.6836 17.5656 28.937 17.5656 28.016Z" fill="url(#paint5_linear_5789_14662)"/>
<path d="M46.9471 29.4453H48.138L48.1378 32.1452H46.9469L46.9471 29.4453Z" fill="black"/>
<path d="M46.9471 29.4453H48.138L48.1378 32.1452H46.9469L46.9471 29.4453Z" fill="url(#paint6_linear_5789_14662)"/>
<path d="M42.5792 28.016C42.5792 27.095 43.3258 26.3484 44.2468 26.3484H50.9966C51.9175 26.3484 52.6641 27.095 52.6641 28.016C52.6641 28.937 51.9175 29.6836 50.9966 29.6836H44.2468C43.3258 29.6836 42.5792 28.937 42.5792 28.016Z" fill="black"/>
<path d="M42.5792 28.016C42.5792 27.095 43.3258 26.3484 44.2468 26.3484H50.9966C51.9175 26.3484 52.6641 27.095 52.6641 28.016C52.6641 28.937 51.9175 29.6836 50.9966 29.6836H44.2468C43.3258 29.6836 42.5792 28.937 42.5792 28.016Z" fill="url(#paint7_linear_5789_14662)"/>
</g>
<defs>
<linearGradient id="paint0_linear_5789_14662" x1="30.4771" y1="36.6451" x2="40.1692" y2="36.6451" gradientUnits="userSpaceOnUse">
<stop stop-color="#E8D1AB"/>
<stop offset="1" stop-color="#FDEFD9"/>
</linearGradient>
<linearGradient id="paint1_linear_5789_14662" x1="17.9861" y1="35.2073" x2="52.6936" y2="35.2073" gradientUnits="userSpaceOnUse">
<stop stop-color="#E8D1AB"/>
<stop offset="1" stop-color="#FDEFD9"/>
</linearGradient>
<linearGradient id="paint2_linear_5789_14662" x1="25.1223" y1="42.0605" x2="29.9611" y2="42.0605" gradientUnits="userSpaceOnUse">
<stop stop-color="#E8D1AB"/>
<stop offset="1" stop-color="#FDEFD9"/>
</linearGradient>
<linearGradient id="paint3_linear_5789_14662" x1="40.8707" y1="42.0524" x2="45.6044" y2="42.0524" gradientUnits="userSpaceOnUse">
<stop stop-color="#E8D1AB"/>
<stop offset="1" stop-color="#FDEFD9"/>
</linearGradient>
<linearGradient id="paint4_linear_5789_14662" x1="21.9331" y1="30.7953" x2="23.1242" y2="30.7953" gradientUnits="userSpaceOnUse">
<stop stop-color="#E8D1AB"/>
<stop offset="1" stop-color="#FDEFD9"/>
</linearGradient>
<linearGradient id="paint5_linear_5789_14662" x1="17.5656" y1="28.016" x2="27.6505" y2="28.016" gradientUnits="userSpaceOnUse">
<stop stop-color="#E8D1AB"/>
<stop offset="1" stop-color="#FDEFD9"/>
</linearGradient>
<linearGradient id="paint6_linear_5789_14662" x1="46.9469" y1="30.7953" x2="48.138" y2="30.7953" gradientUnits="userSpaceOnUse">
<stop stop-color="#E8D1AB"/>
<stop offset="1" stop-color="#FDEFD9"/>
</linearGradient>
<linearGradient id="paint7_linear_5789_14662" x1="42.5792" y1="28.016" x2="52.6641" y2="28.016" gradientUnits="userSpaceOnUse">
<stop stop-color="#E8D1AB"/>
<stop offset="1" stop-color="#FDEFD9"/>
</linearGradient>
<clipPath id="clip0_5789_14662">
<rect width="35.1311" height="35.1311" fill="white" transform="translate(17.5656 17.5657)"/>
</clipPath>
</defs>
</svg>
